<svg width="93" height="98" viewBox="0 0 93 98" fill="none" xmlns="http://www.w3.org/2000/svg">
<mask id="mask0_9_209" style="mask-type:alpha" maskUnits="userSpaceOnUse" x="0" y="31" width="33" height="30">
<path d="M0 31.8511H32.1662V60.5441H0V31.8511Z" fill="white"/>
</mask>
<g mask="url(#mask0_9_209)">
<path d="M14.1238 32.0441H32.1065C32.1065 49.3061 24.5908 59.6829 18.7422 60.1766C18.3723 60.1894 18.0025 60.1951 17.6299 60.1951H14.1238C10.2223 60.1951 6.6921 58.6202 4.1347 56.0736C1.5788 53.5241 -0.00140381 50.007 -0.00140381 46.1196C-0.00140381 38.3462 6.3223 32.0441 14.1238 32.0441Z" fill="#19B687"/>
</g>
<mask id="mask1_9_209" style="mask-type:alpha" maskUnits="userSpaceOnUse" x="18" y="0" width="43" height="61">
<path d="M18.6938 0H60.5675V60.1809H18.6938V0Z" fill="white"/>
</mask>
<g mask="url(#mask1_9_209)">
<path d="M60.3584 14.1251V22.1965C60.3584 28.5014 57.8451 34.5496 53.3704 39.0087L42.343 49.9956C36.052 56.2651 27.609 59.8957 18.7422 60.1766C24.5908 59.6829 32.1065 49.3061 32.1065 32.0441V14.1251C32.1065 6.35181 38.4316 0.0497131 46.2331 0.0497131C54.0332 0.0497131 60.3584 6.35181 60.3584 14.1251Z" fill="white"/>
</g>
<mask id="mask2_9_209" style="mask-type:alpha" maskUnits="userSpaceOnUse" x="60" y="36" width="33" height="30">
<path d="M60.2033 36.9359H92.4667V65.2657H60.2033V36.9359Z" fill="white"/>
</mask>
<g mask="url(#mask2_9_209)">
<path d="M78.3407 65.0983H60.3584C60.3584 47.8377 67.8754 37.4595 73.7237 36.9672C74.0937 36.953 74.4627 36.9473 74.8347 36.9473H78.3407C82.2427 36.9473 85.7737 38.5221 88.3297 41.0702C90.8857 43.6183 92.4677 47.1354 92.4677 51.0228C92.4677 58.7962 86.1437 65.0983 78.3407 65.0983Z" fill="#19B687"/>
</g>
<mask id="mask3_9_209" style="mask-type:alpha" maskUnits="userSpaceOnUse" x="31" y="36" width="44" height="62">
<path d="M31.8021 36.9359H74.0397V97.1322H31.8021V36.9359Z" fill="white"/>
</mask>
<g mask="url(#mask3_9_209)">
<path d="M32.1065 83.0182V74.9462C32.1065 68.6409 34.6197 62.5928 39.0958 58.1336L50.1218 47.1467C56.4142 40.8787 64.8573 37.2467 73.7237 36.9672C67.8755 37.4595 60.3584 47.8377 60.3584 65.0983V83.0182C60.3584 90.7902 54.0332 97.0922 46.2331 97.0922C38.4316 97.0922 32.1065 90.7902 32.1065 83.0182Z" fill="white"/>
</g>
</svg>
