<svg width="343" height="152" viewBox="0 0 343 152" fill="none" xmlns="http://www.w3.org/2000/svg">
<mask id="mask0_3_2" style="mask-type:alpha" maskUnits="userSpaceOnUse" x="27" y="59" width="33" height="29">
<path d="M27.5493 59.2019H59.7155V87.8949H27.5493V59.2019Z" fill="white"/>
</mask>
<g mask="url(#mask0_3_2)">
<path d="M41.6731 59.3949H59.6558C59.6558 76.6569 52.1401 87.0337 46.2915 87.5274C45.9216 87.5402 45.5518 87.5458 45.1792 87.5458H41.6731C37.7716 87.5458 34.2414 85.971 31.684 83.4244C29.1281 80.8749 27.5479 77.3578 27.5479 73.4704C27.5479 65.697 33.8716 59.3949 41.6731 59.3949Z" fill="#19B687"/>
</g>
<mask id="mask1_3_2" style="mask-type:alpha" maskUnits="userSpaceOnUse" x="46" y="27" width="43" height="61">
<path d="M46.2431 27.3508H88.1168V87.5317H46.2431V27.3508Z" fill="white"/>
</mask>
<g mask="url(#mask1_3_2)">
<path d="M87.9077 41.476V49.5473C87.9077 55.8522 85.3944 61.9004 80.9197 66.3595L69.8923 77.3464C63.6013 83.6159 55.1583 87.2465 46.2915 87.5274C52.1401 87.0337 59.6558 76.6569 59.6558 59.3949V41.476C59.6558 33.7026 65.9809 27.4005 73.7824 27.4005C81.5825 27.4005 87.9077 33.7026 87.9077 41.476Z" fill="white"/>
</g>
<mask id="mask2_3_2" style="mask-type:alpha" maskUnits="userSpaceOnUse" x="87" y="64" width="34" height="29">
<path d="M87.7526 64.2867H120.016V92.6165H87.7526V64.2867Z" fill="white"/>
</mask>
<g mask="url(#mask2_3_2)">
<path d="M105.89 92.4491H87.9077C87.9077 75.1885 95.4247 64.8103 101.273 64.318C101.643 64.3038 102.012 64.2981 102.384 64.2981H105.89C109.792 64.2981 113.323 65.8729 115.879 68.421C118.435 70.9691 120.017 74.4862 120.017 78.3736C120.017 86.147 113.693 92.4491 105.89 92.4491Z" fill="#19B687"/>
</g>
<mask id="mask3_3_2" style="mask-type:alpha" maskUnits="userSpaceOnUse" x="59" y="64" width="43" height="61">
<path d="M59.3514 64.2867H101.589V124.483H59.3514V64.2867Z" fill="white"/>
</mask>
<g mask="url(#mask3_3_2)">
<path d="M59.6558 110.369V102.297C59.6558 95.9917 62.169 89.9436 66.6451 85.4844L77.6711 74.4975C83.9635 68.2295 92.4066 64.5975 101.273 64.318C95.4248 64.8103 87.9077 75.1885 87.9077 92.4491V110.369C87.9077 118.141 81.5826 124.443 73.7824 124.443C65.9809 124.443 59.6558 118.141 59.6558 110.369Z" fill="white"/>
</g>
<path d="M169.973 89.105H157.451L142.744 72.2218V89.105H133.652V49.306H142.744V65.565L156.433 49.306H167.459L151.403 68.1698L169.973 89.105Z" fill="white"/>
<path d="M171.712 89.105V64.3562H180.274V66.961H180.371C182.593 64.7407 184.962 63.6298 187.477 63.6298C188.702 63.6298 189.919 63.7915 191.13 64.1122C192.339 64.4342 193.499 64.9336 194.611 65.6104C195.727 66.2885 196.628 67.2448 197.32 68.4819C198.014 69.7191 198.361 71.1591 198.361 72.8006V89.105H189.798V75.1161C189.798 73.8307 189.386 72.7042 188.564 71.7394C187.744 70.7747 186.672 70.2923 185.349 70.2923C184.059 70.2923 182.891 70.7917 181.845 71.7905C180.798 72.7865 180.274 73.8945 180.274 75.1161V89.105H171.712Z" fill="white"/>
<path d="M206.022 86.1653C203.268 83.718 201.891 80.5811 201.891 76.7561C201.891 72.9283 203.325 69.7844 206.192 67.3242C209.063 64.8613 212.61 63.6298 216.832 63.6298C220.992 63.6298 224.498 64.8698 227.351 67.3469C230.207 69.8255 231.635 72.9624 231.635 76.7561C231.635 80.5513 230.239 83.6797 227.448 86.1426C224.66 88.6028 221.121 89.8314 216.832 89.8314C212.383 89.8314 208.778 88.6099 206.022 86.1653ZM212.65 72.5566C211.538 73.6505 210.983 75.0508 210.983 76.7561C210.983 78.4586 211.513 79.849 212.576 80.9273C213.641 82.0055 215.045 82.5447 216.786 82.5447C218.462 82.5447 219.838 81.9984 220.917 80.9046C221.998 79.8121 222.538 78.4289 222.538 76.7561C222.538 75.0508 221.982 73.6505 220.871 72.5566C219.759 71.4642 218.398 70.9165 216.786 70.9165C215.139 70.9165 213.761 71.4642 212.65 72.5566Z" fill="white"/>
<path d="M250.88 89.105H245.077L231.775 64.3562H241.64L247.688 77.7209L253.634 64.3562H259.539L265.484 77.7209L271.532 64.3562H281.398L268.096 89.105H262.293L256.586 76.3192L250.88 89.105Z" fill="white"/>
<path d="M292.418 49.306V89.105H283.327V49.306H292.418Z" fill="white"/>
<path d="M299.673 64.3562V55.1399H308.235V64.3562H313.458V70.8711H308.235V78.7311C308.235 81.0167 308.879 82.1588 310.169 82.1588C310.491 82.1588 310.829 82.0949 311.182 81.9658C311.538 81.8381 311.814 81.709 312.007 81.5799L312.297 81.387L314.425 88.2821C312.585 89.315 310.489 89.8314 308.138 89.8314C306.525 89.8314 305.14 89.5491 303.979 88.9858C302.819 88.4226 301.938 87.6664 301.34 86.7158C300.744 85.7667 300.317 84.7693 300.059 83.7251C299.801 82.6809 299.673 81.5629 299.673 80.3711V70.8711H296.094V64.3562H299.673Z" fill="white"/>
</svg>
